<mxfile host="app.diagrams.net" agent="Mozilla/5.0 (Windows NT 10.0; Win64; x64) AppleWebKit/537.36 (KHTML, like Gecko) Chrome/131.0.0.0 Safari/537.36" version="25.0.3">
  <diagram name="Page-1" id="RE5M3wuqJzaE2vymk6Hc">
    <mxGraphModel dx="1434" dy="746" grid="1" gridSize="10" guides="1" tooltips="1" connect="1" arrows="1" fold="1" page="1" pageScale="1" pageWidth="850" pageHeight="1100" math="0" shadow="0">
      <root>
        <mxCell id="0" />
        <mxCell id="1" parent="0" />
        <mxCell id="_4ogQEEek52CgSsuIspT-1" value="&lt;font style=&quot;font-size: 24px;&quot;&gt;start&lt;/font&gt;" style="strokeWidth=2;html=1;shape=mxgraph.flowchart.start_1;whiteSpace=wrap;" vertex="1" parent="1">
          <mxGeometry x="375" y="40" width="100" height="60" as="geometry" />
        </mxCell>
        <mxCell id="_4ogQEEek52CgSsuIspT-2" value="&lt;font style=&quot;font-size: 24px;&quot;&gt;end&lt;/font&gt;" style="strokeWidth=2;html=1;shape=mxgraph.flowchart.start_1;whiteSpace=wrap;" vertex="1" parent="1">
          <mxGeometry x="390" y="1010" width="100" height="60" as="geometry" />
        </mxCell>
        <mxCell id="_4ogQEEek52CgSsuIspT-11" style="edgeStyle=orthogonalEdgeStyle;rounded=0;orthogonalLoop=1;jettySize=auto;html=1;entryX=0.5;entryY=0;entryDx=0;entryDy=0;" edge="1" parent="1" source="_4ogQEEek52CgSsuIspT-3" target="_4ogQEEek52CgSsuIspT-9">
          <mxGeometry relative="1" as="geometry" />
        </mxCell>
        <mxCell id="_4ogQEEek52CgSsuIspT-12" value="false" style="edgeLabel;html=1;align=center;verticalAlign=middle;resizable=0;points=[];" vertex="1" connectable="0" parent="_4ogQEEek52CgSsuIspT-11">
          <mxGeometry x="-0.8562" y="5" relative="1" as="geometry">
            <mxPoint as="offset" />
          </mxGeometry>
        </mxCell>
        <mxCell id="_4ogQEEek52CgSsuIspT-42" style="edgeStyle=orthogonalEdgeStyle;rounded=0;orthogonalLoop=1;jettySize=auto;html=1;entryX=0;entryY=0.25;entryDx=0;entryDy=0;" edge="1" parent="1" source="_4ogQEEek52CgSsuIspT-3" target="_4ogQEEek52CgSsuIspT-5">
          <mxGeometry relative="1" as="geometry" />
        </mxCell>
        <mxCell id="_4ogQEEek52CgSsuIspT-3" value="true" style="strokeWidth=2;html=1;shape=mxgraph.flowchart.decision;whiteSpace=wrap;" vertex="1" parent="1">
          <mxGeometry x="375" y="160" width="100" height="100" as="geometry" />
        </mxCell>
        <mxCell id="_4ogQEEek52CgSsuIspT-4" style="edgeStyle=orthogonalEdgeStyle;rounded=0;orthogonalLoop=1;jettySize=auto;html=1;exitX=0.5;exitY=1;exitDx=0;exitDy=0;exitPerimeter=0;entryX=0.5;entryY=0;entryDx=0;entryDy=0;entryPerimeter=0;" edge="1" parent="1" source="_4ogQEEek52CgSsuIspT-1" target="_4ogQEEek52CgSsuIspT-3">
          <mxGeometry relative="1" as="geometry" />
        </mxCell>
        <mxCell id="_4ogQEEek52CgSsuIspT-8" style="edgeStyle=orthogonalEdgeStyle;rounded=0;orthogonalLoop=1;jettySize=auto;html=1;" edge="1" parent="1" source="_4ogQEEek52CgSsuIspT-5" target="_4ogQEEek52CgSsuIspT-7">
          <mxGeometry relative="1" as="geometry" />
        </mxCell>
        <mxCell id="_4ogQEEek52CgSsuIspT-13" value="false" style="edgeLabel;html=1;align=center;verticalAlign=middle;resizable=0;points=[];" vertex="1" connectable="0" parent="_4ogQEEek52CgSsuIspT-8">
          <mxGeometry x="-0.2533" y="-3" relative="1" as="geometry">
            <mxPoint as="offset" />
          </mxGeometry>
        </mxCell>
        <mxCell id="_4ogQEEek52CgSsuIspT-5" value="input name[i]" style="shape=parallelogram;html=1;strokeWidth=2;perimeter=parallelogramPerimeter;whiteSpace=wrap;rounded=1;arcSize=12;size=0.23;" vertex="1" parent="1">
          <mxGeometry x="765" y="190" width="100" height="60" as="geometry" />
        </mxCell>
        <mxCell id="_4ogQEEek52CgSsuIspT-43" style="edgeStyle=orthogonalEdgeStyle;rounded=0;orthogonalLoop=1;jettySize=auto;html=1;" edge="1" parent="1" source="_4ogQEEek52CgSsuIspT-7" target="_4ogQEEek52CgSsuIspT-9">
          <mxGeometry relative="1" as="geometry" />
        </mxCell>
        <mxCell id="_4ogQEEek52CgSsuIspT-47" value="true" style="edgeLabel;html=1;align=center;verticalAlign=middle;resizable=0;points=[];" vertex="1" connectable="0" parent="_4ogQEEek52CgSsuIspT-43">
          <mxGeometry x="-0.7243" y="-3" relative="1" as="geometry">
            <mxPoint as="offset" />
          </mxGeometry>
        </mxCell>
        <mxCell id="_4ogQEEek52CgSsuIspT-45" style="edgeStyle=orthogonalEdgeStyle;rounded=0;orthogonalLoop=1;jettySize=auto;html=1;exitX=0.5;exitY=1;exitDx=0;exitDy=0;exitPerimeter=0;entryX=0.5;entryY=0;entryDx=0;entryDy=0;" edge="1" parent="1" source="_4ogQEEek52CgSsuIspT-7" target="_4ogQEEek52CgSsuIspT-15">
          <mxGeometry relative="1" as="geometry" />
        </mxCell>
        <mxCell id="_4ogQEEek52CgSsuIspT-46" value="false" style="edgeLabel;html=1;align=center;verticalAlign=middle;resizable=0;points=[];" vertex="1" connectable="0" parent="_4ogQEEek52CgSsuIspT-45">
          <mxGeometry x="-0.44" relative="1" as="geometry">
            <mxPoint as="offset" />
          </mxGeometry>
        </mxCell>
        <mxCell id="_4ogQEEek52CgSsuIspT-7" value="name[i] != &quot;-1&quot;" style="strokeWidth=2;html=1;shape=mxgraph.flowchart.decision;whiteSpace=wrap;" vertex="1" parent="1">
          <mxGeometry x="765" y="280" width="100" height="100" as="geometry" />
        </mxCell>
        <mxCell id="_4ogQEEek52CgSsuIspT-10" style="edgeStyle=orthogonalEdgeStyle;rounded=0;orthogonalLoop=1;jettySize=auto;html=1;" edge="1" parent="1" source="_4ogQEEek52CgSsuIspT-9" target="_4ogQEEek52CgSsuIspT-2">
          <mxGeometry relative="1" as="geometry" />
        </mxCell>
        <mxCell id="_4ogQEEek52CgSsuIspT-9" value="Display&lt;div&gt;&quot;** RESULT **&quot;&lt;/div&gt;&lt;div&gt;name1 (age1)&lt;/div&gt;&lt;div&gt;name2 (age2)&lt;/div&gt;" style="shape=parallelogram;html=1;strokeWidth=2;perimeter=parallelogramPerimeter;whiteSpace=wrap;rounded=1;arcSize=12;size=0.23;" vertex="1" parent="1">
          <mxGeometry x="170" y="920" width="150" height="60" as="geometry" />
        </mxCell>
        <mxCell id="_4ogQEEek52CgSsuIspT-15" value="input salary[i]" style="shape=parallelogram;html=1;strokeWidth=2;perimeter=parallelogramPerimeter;whiteSpace=wrap;rounded=1;arcSize=12;size=0.23;" vertex="1" parent="1">
          <mxGeometry x="620" y="510" width="100" height="60" as="geometry" />
        </mxCell>
        <mxCell id="_4ogQEEek52CgSsuIspT-20" style="edgeStyle=orthogonalEdgeStyle;rounded=0;orthogonalLoop=1;jettySize=auto;html=1;entryX=0.5;entryY=0;entryDx=0;entryDy=0;" edge="1" parent="1" source="_4ogQEEek52CgSsuIspT-17" target="_4ogQEEek52CgSsuIspT-18">
          <mxGeometry relative="1" as="geometry" />
        </mxCell>
        <mxCell id="_4ogQEEek52CgSsuIspT-22" value="true" style="edgeLabel;html=1;align=center;verticalAlign=middle;resizable=0;points=[];" vertex="1" connectable="0" parent="_4ogQEEek52CgSsuIspT-20">
          <mxGeometry x="-0.0466" y="-2" relative="1" as="geometry">
            <mxPoint as="offset" />
          </mxGeometry>
        </mxCell>
        <mxCell id="_4ogQEEek52CgSsuIspT-21" style="edgeStyle=orthogonalEdgeStyle;rounded=0;orthogonalLoop=1;jettySize=auto;html=1;entryX=0.5;entryY=0;entryDx=0;entryDy=0;" edge="1" parent="1" source="_4ogQEEek52CgSsuIspT-17" target="_4ogQEEek52CgSsuIspT-19">
          <mxGeometry relative="1" as="geometry" />
        </mxCell>
        <mxCell id="_4ogQEEek52CgSsuIspT-23" value="false" style="edgeLabel;html=1;align=center;verticalAlign=middle;resizable=0;points=[];" vertex="1" connectable="0" parent="_4ogQEEek52CgSsuIspT-21">
          <mxGeometry x="-0.1167" relative="1" as="geometry">
            <mxPoint as="offset" />
          </mxGeometry>
        </mxCell>
        <mxCell id="_4ogQEEek52CgSsuIspT-17" value="salary[i] &amp;gt; maxtaxperson" style="strokeWidth=2;html=1;shape=mxgraph.flowchart.decision;whiteSpace=wrap;" vertex="1" parent="1">
          <mxGeometry x="755" y="490" width="100" height="100" as="geometry" />
        </mxCell>
        <mxCell id="_4ogQEEek52CgSsuIspT-28" style="edgeStyle=orthogonalEdgeStyle;rounded=0;orthogonalLoop=1;jettySize=auto;html=1;entryX=1;entryY=0.5;entryDx=0;entryDy=0;" edge="1" parent="1" source="_4ogQEEek52CgSsuIspT-18" target="_4ogQEEek52CgSsuIspT-19">
          <mxGeometry relative="1" as="geometry" />
        </mxCell>
        <mxCell id="_4ogQEEek52CgSsuIspT-18" value="maxtaxperson = salary[i]" style="rounded=1;whiteSpace=wrap;html=1;absoluteArcSize=1;arcSize=14;strokeWidth=2;" vertex="1" parent="1">
          <mxGeometry x="985" y="630" width="125" height="70" as="geometry" />
        </mxCell>
        <mxCell id="_4ogQEEek52CgSsuIspT-29" style="edgeStyle=orthogonalEdgeStyle;rounded=0;orthogonalLoop=1;jettySize=auto;html=1;entryX=0.5;entryY=0;entryDx=0;entryDy=0;" edge="1" parent="1" source="_4ogQEEek52CgSsuIspT-19" target="_4ogQEEek52CgSsuIspT-24">
          <mxGeometry relative="1" as="geometry" />
        </mxCell>
        <mxCell id="_4ogQEEek52CgSsuIspT-19" value="tax = tax + (salary[i] *0.07)" style="rounded=1;whiteSpace=wrap;html=1;absoluteArcSize=1;arcSize=14;strokeWidth=2;" vertex="1" parent="1">
          <mxGeometry x="742.5" y="630" width="125" height="70" as="geometry" />
        </mxCell>
        <mxCell id="_4ogQEEek52CgSsuIspT-30" style="edgeStyle=orthogonalEdgeStyle;rounded=0;orthogonalLoop=1;jettySize=auto;html=1;entryX=0.5;entryY=0;entryDx=0;entryDy=0;" edge="1" parent="1" source="_4ogQEEek52CgSsuIspT-24" target="_4ogQEEek52CgSsuIspT-25">
          <mxGeometry relative="1" as="geometry" />
        </mxCell>
        <mxCell id="_4ogQEEek52CgSsuIspT-24" value="allsalary = allsalary + salary[i]" style="rounded=1;whiteSpace=wrap;html=1;absoluteArcSize=1;arcSize=14;strokeWidth=2;" vertex="1" parent="1">
          <mxGeometry x="742.5" y="740" width="125" height="70" as="geometry" />
        </mxCell>
        <mxCell id="_4ogQEEek52CgSsuIspT-25" value="i+=1" style="rounded=1;whiteSpace=wrap;html=1;absoluteArcSize=1;arcSize=14;strokeWidth=2;" vertex="1" parent="1">
          <mxGeometry x="742.5" y="860" width="125" height="70" as="geometry" />
        </mxCell>
        <mxCell id="_4ogQEEek52CgSsuIspT-34" style="edgeStyle=orthogonalEdgeStyle;rounded=0;orthogonalLoop=1;jettySize=auto;html=1;entryX=0;entryY=0.5;entryDx=0;entryDy=0;entryPerimeter=0;" edge="1" parent="1" source="_4ogQEEek52CgSsuIspT-15" target="_4ogQEEek52CgSsuIspT-17">
          <mxGeometry relative="1" as="geometry" />
        </mxCell>
        <mxCell id="_4ogQEEek52CgSsuIspT-37" style="edgeStyle=orthogonalEdgeStyle;rounded=0;orthogonalLoop=1;jettySize=auto;html=1;entryX=0.5;entryY=1;entryDx=0;entryDy=0;entryPerimeter=0;" edge="1" parent="1" source="_4ogQEEek52CgSsuIspT-25" target="_4ogQEEek52CgSsuIspT-3">
          <mxGeometry relative="1" as="geometry" />
        </mxCell>
      </root>
    </mxGraphModel>
  </diagram>
</mxfile>
